#!OML:ASF F:\VICON\USERDATA\INSTALL\rory3\rory3.ASF
:FULLY-SPECIFIED
:DEGREES
1471
root 0.386188 16.1691 -0.376126 2.77677 0.662595 0.577166
lowerback 9.89761 -0.450193 3.64047
upperback -2.71236 0.27782 4.91704
thorax -8.48092 0.0940821 3.14158
lowerneck -13.3774 -1.604 -8.61848
upperneck 20.4362 -1.18834 4.13258
head 8.66415 -0.796136 2.70402
rclavicle -9.29318e-015 1.74931e-014
rhumerus -9.44936 -23.6322 -8.40015
rradius 89.439
rwrist 13.091
rhand -4.2787 5.31372
rfingers 7.12502
rthumb 21.4863 -23.5146
lclavicle -9.29318e-015 1.74931e-014
lhumerus -15.9871 -16.8226 15.1936
lradius 80.1285
lwrist 25.9001
lhand -4.70738 17.3782
lfingers 7.12502
lthumb 21.0745 46.253
rfemur -6.27063 13.4586 15.3051
rtibia 18.2073
rfoot -11.3183 -15.2849
rtoes -4.25272
lfemur -2.88539 -11.7778 -17.8757
ltibia 9.89366
lfoot -6.47219 9.87466
ltoes -10.7632
1472
root 0.381935 16.1799 -0.378983 2.93875 0.667242 0.518269
lowerback 9.86348 -0.454764 3.53762
upperback -2.80483 0.244369 4.70776
thorax -8.55792 0.0763683 2.98232
lowerneck -13.2145 -1.47965 -8.50343
upperneck 20.3636 -1.08995 4.28681
head 8.60083 -0.725127 2.74753
rclavicle 6.90777e-015 -2.8625e-014
rhumerus -7.25686 -23.5057 -8.57486
rradius 84.2151
rwrist 13.7056
rhand -4.13737 5.36923
rfingers 7.12502
rthumb 21.622 -23.4436
lclavicle 6.90777e-015 -2.8625e-014
lhumerus -13.2801 -15.8867 14.4338
lradius 75.3703
lwrist 24.9894
lhand -4.34426 17.7707
lfingers 7.12502
lthumb 21.4233 46.6062
rfemur -6.18416 13.4202 15.3459
rtibia 17.6678
rfoot -11.0661 -15.2868
rtoes -4.01594
lfemur -2.55821 -11.7736 -17.754
ltibia 8.92579
lfoot -6.02237 9.91044
ltoes -10.921
1473
root 0.377034 16.1895 -0.38001 3.07659 0.636363 0.521448
lowerback 9.8461 -0.457877 3.36287
upperback -2.91768 0.206143 4.50777
thorax -8.6671 0.0603872 2.87548
lowerneck -12.8913 -1.35335 -8.42217
upperneck 20.2035 -0.989976 4.42402
head 8.47886 -0.65796 2.78892
rclavicle -1.14798e-014 0
rhumerus -4.89884 -23.1222 -8.6366
rradius 78.79
rwrist 13.9808
rhand -3.99718 5.2597
rfingers 7.12502
rthumb 21.7567 -23.5375
lclavicle -1.14798e-014 0
lhumerus -10.5499 -14.784 13.8299
lradius 70.3344
lwrist 23.4898
lhand -3.77759 18.1106
lfingers 7.12502
lthumb 21.9675 46.8832
rfemur -6.08504 13.387 15.3289
rtibia 17.1705
rfoot -10.9193 -15.3007
rtoes -3.66411
lfemur -2.16736 -11.738 -17.7052
ltibia 7.91769
lfoot -5.5765 9.92152
ltoes -11.0024
1474
root 0.371558 16.1994 -0.382222 3.185 0.57335 0.53301
lowerback 9.81069 -0.460762 3.17012
upperback -2.93163 0.15948 4.31904
thorax -8.65808 0.041983 2.78902
lowerneck -12.8713 -1.25059 -8.37942
upperneck 20.1916 -0.892065 4.57835
head 8.46319 -0.592827 2.84493
rclavicle -1.02374e-014 -6.36111e-015
rhumerus -2.57198 -22.5641 -8.4809
rradius 73.3746
rwrist 13.987
rhand -4.12428 4.89187
rfingers 7.12502
rthumb 21.6346 -23.9195
lclavicle -1.02374e-014 -6.36111e-015
lhumerus -7.82928 -13.3566 13.3373
lradius 65.1465
lwrist 21.401
lhand -3.6418 18.5452
lfingers 7.12502
lthumb 22.0979 47.3025
rfemur -5.96273 13.4198 15.3089
rtibia 16.6804
rfoot -10.8554 -15.3021
rtoes -2.74218
lfemur -1.75375 -11.6734 -17.6694
ltibia 6.91892
lfoot -5.13625 9.9428
ltoes -11.002
1475
root 0.368293 16.2086 -0.385933 3.29634 0.507879 0.369323
lowerback 9.76572 -0.482457 3.18307
upperback -2.88151 0.113155 4.15875
thorax -8.57459 0.0138177 2.6152
lowerneck -13.0663 -1.12954 -8.30274
upperneck 20.2114 -0.768803 4.78251
head 8.49514 -0.506508 2.91628
rclavicle 1.49585e-014 -5.725e-014
rhumerus -0.0274311 -22.6681 -8.72627
rradius 67.5949
rwrist 14.6322
rhand -4.32745 4.98034
rfingers 7.12502
rthumb 21.4395 -23.8533
lclavicle 1.49585e-014 -5.725e-014
lhumerus -5.18652 -11.7494 12.8355
lradius 59.8805
lwrist 18.8245
lhand -4.20573 18.7849
lfingers 7.12502
lthumb 21.5564 47.6053
rfemur -5.87257 13.4623 15.4716
rtibia 16.2279
rfoot -10.7678 -15.3141
rtoes -2.39908
lfemur -1.29739 -11.5947 -17.4448
ltibia 5.81444
lfoot -4.61066 10.007
ltoes -10.7756
1476
root 0.366611 16.2173 -0.38953 3.39447 0.432182 0.230834
lowerback 9.74884 -0.50633 3.21176
upperback -2.81836 0.0642787 3.96231
thorax -8.49348 -0.0173389 2.39473
lowerneck -13.2968 -0.995375 -8.14092
upperneck 20.2123 -0.639407 4.96639
head 8.52611 -0.412079 2.96726
rclavicle -2.83268e-015 -1.90833e-014
rhumerus 2.97569 -23.6374 -9.526
rradius 61.1311
rwrist 16.2529
rhand -4.60274 6.01347
rfingers 7.12502
rthumb 21.1751 -22.8501
lclavicle -2.83268e-015 -1.90833e-014
lhumerus -2.60328 -10.0174 12.2969
lradius 54.5641
lwrist 15.6543
lhand -5.00222 18.7496
lfingers 7.12502
lthumb 20.7913 47.6557
rfemur -5.80899 13.4317 15.599
rtibia 15.8319
rfoot -10.5836 -15.2569
rtoes -2.44628
lfemur -0.729477 -11.5082 -17.2606
ltibia 4.53225
lfoot -3.99435 10.0784
ltoes -10.6225
1477
root 0.365292 16.2248 -0.393578 3.52218 0.321064 0.231127
lowerback 9.75718 -0.572309 3.12196
upperback -2.77463 -0.0556019 3.74199
thorax -8.44704 -0.077503 2.22887
lowerneck -13.6651 -0.828338 -7.97058
upperneck 20.304 -0.433915 5.04172
head 8.60812 -0.292151 2.99099
rclavicle -4.22417e-015 4.77083e-015
rhumerus 5.94612 -24.3805 -10.2146
rradius 54.9719
rwrist 17.7526
rhand -5.36109 7.00059
rfingers 7.12502
rthumb 20.4464 -21.9429
lclavicle -4.22417e-015 4.77083e-015
lhumerus -0.248106 -7.77675 11.8618
lradius 49.1965
lwrist 11.6031
lhand -5.59957 18.5994
lfingers 7.12502
lthumb 20.2173 47.5673
rfemur -5.83251 13.3659 15.5528
rtibia 15.5027
rfoot -10.3921 -15.1189
rtoes -2.21127
lfemur 0.0662968 -11.3943 -17.2312
ltibia 2.78672
lfoot -3.20701 10.2214
ltoes -10.2408
